<?xml version="1.0" standalone="no"?>
<!DOCTYPE svg PUBLIC "-//W3C//DTD SVG 20010904//EN"
 "http://www.w3.org/TR/2001/REC-SVG-20010904/DTD/svg10.dtd">
<svg version="1.0" xmlns="http://www.w3.org/2000/svg"
 width="281.000000pt" height="93.000000pt" viewBox="0 0 281.000000 93.000000"
 preserveAspectRatio="xMidYMid meet">

<g transform="translate(0.000000,93.000000) scale(0.100000,-0.100000)"
fill="#000000" stroke="none">
<path d="M322 825 c-102 -24 -187 -108 -219 -213 -21 -70 -23 -209 -4 -277 17
-63 63 -136 104 -168 73 -56 95 -62 217 -62 129 0 166 13 227 77 25 26 63 95
63 114 0 4 -97 54 -105 54 -2 0 -11 -15 -19 -32 -20 -45 -36 -62 -71 -81 -107
-55 -232 -9 -269 100 -19 54 -21 189 -5 248 25 90 88 135 187 135 67 0 112
-23 147 -77 l21 -31 52 32 c29 17 52 34 52 37 0 18 -61 93 -91 111 -72 45
-187 58 -287 33z"/>
<path d="M1045 827 c-138 -36 -212 -124 -237 -280 -9 -60 -9 -94 1 -159 20
-128 70 -206 165 -256 47 -25 61 -27 166 -27 106 0 119 2 167 27 95 51 155
151 167 283 17 187 -49 330 -180 391 -63 30 -178 39 -249 21z m190 -130 c29
-16 48 -37 68 -76 24 -49 27 -65 27 -153 0 -105 -13 -154 -53 -196 -76 -82
-230 -73 -291 17 -46 67 -53 260 -12 339 45 87 170 120 261 69z"/>
<path d="M1595 660 c-11 -4 -31 -20 -45 -35 -24 -26 -25 -30 -28 -208 -4 -200
3 -244 45 -276 25 -21 36 -21 537 -21 561 0 539 -2 571 60 12 23 15 70 15 221
l0 191 -39 39 -39 39 -498 -1 c-275 0 -508 -4 -519 -9z m208 -103 c75 -49 106
-153 73 -242 -33 -85 -100 -118 -234 -113 l-77 3 -3 189 -2 189 109 -5 c79 -3
116 -9 134 -21z m414 -4 c50 -37 68 -80 68 -163 -1 -127 -49 -182 -165 -188
-55 -3 -70 0 -99 20 -50 34 -71 67 -77 125 -10 83 3 139 42 183 40 44 55 49
141 46 45 -1 71 -8 90 -23z m229 -35 c20 -35 37 -64 39 -66 2 -2 21 26 42 62
36 62 40 66 76 66 20 0 37 -3 37 -7 0 -5 -16 -34 -35 -66 -71 -118 -71 -102
-10 -203 30 -49 50 -93 46 -97 -5 -5 -23 -7 -42 -5 -29 3 -38 11 -69 65 -19
34 -38 65 -42 68 -3 4 -25 -25 -48 -64 -38 -65 -45 -71 -74 -71 -18 0 -35 3
-38 6 -4 3 17 45 44 92 28 48 51 92 51 97 0 6 -21 47 -46 91 -26 45 -47 84
-47 87 0 4 18 7 40 7 37 0 41 -3 76 -62z"/>
<path d="M1640 390 l0 -120 40 0 c47 0 95 22 110 49 5 11 10 45 10 76 0 49 -4
60 -29 86 -25 24 -37 29 -80 29 l-51 0 0 -120z"/>
<path d="M2051 491 c-40 -40 -40 -154 0 -197 27 -28 82 -32 116 -9 47 33 53
147 11 200 -25 32 -97 36 -127 6z"/>
</g>
</svg>
